<?xml version="1.0" encoding="utf-8"?>
<svg width="107.55969px" height="107.55945px" viewBox="0 0 107.55969 107.55945" version="1.1" xmlns:xlink="http://www.w3.org/1999/xlink" xmlns="http://www.w3.org/2000/svg">
  <g id="Group-2">
    <path d="M53.7798 0C83.4618 0 107.56 24.0977 107.56 53.7796C107.56 83.4615 83.4618 107.559 53.7798 107.559C24.0979 107.559 0 83.4615 0 53.7796C0 24.0977 24.0979 0 53.7798 0L53.7798 0Z" id="Shape" fill="#A8B1C3" fill-opacity="0.29803923" fill-rule="evenodd" stroke="none" />
    <path d="M53.7798 24.8214C62.9128 24.8214 70.3272 32.2358 70.3272 41.3689C70.3272 50.5019 62.9128 57.9163 53.7798 57.9163C44.6467 57.9163 37.2323 50.5019 37.2323 41.3689C37.2323 32.2358 44.6467 24.8214 53.7798 24.8214" id="Shape-Path" fill="#0192FF" fill-opacity="0.29803923" fill-rule="evenodd" stroke="none" />
    <path d="M24.0959 82.5826C28.4099 75.2492 36.3829 70.327 45.5059 70.327C50.9167 70.327 56.643 70.327 62.0538 70.327C71.1769 70.327 79.1499 75.2492 83.4638 82.5826C75.9434 90.3313 65.4195 95.1487 53.7799 95.1487C42.1403 95.1487 31.6164 90.3313 24.0959 82.5826L24.0959 82.5826Z" id="Shape-Path" fill="#0192FF" fill-opacity="0.29803923" fill-rule="evenodd" stroke="none" />
  </g>
</svg>